# xmcd
#
# Track frame offsets: 
#        183
#        53918
#        78890
#        109385
#        149578
#        173975
#        212893
#
# Disc length: 4076 seconds
#
# Revision: 7
# Processed by: cddbd v1.5.2PL0 Copyright (c) Steve Scherf et al.
# Submitted via: ExactAudioCopy v0.99pb5
#
DISCID=660fea07
DTITLE=Sergej Rachmaninov - Piano Concertos N° 1 and 4 - Rhapsody (Jasch
DTITLE=a Horenstein, Royal Philh. Orch. Earl Wild, piano)
DYEAR=1965
DGENRE=Classique
TTITLE0=Piano Concerto No.1, Op.1 in F sharp minor - I. Vivace
TTITLE1=Piano Concerto No.1, Op.1 in F sharp minor - II. Andante
TTITLE2=Piano Concerto No.1, Op.1 in F sharp minor - III. Allegro viva
TTITLE2=ce
TTITLE3=Piano Concerto No.4, Op.40 in G minor - I. Allegro
TTITLE4=Piano Concerto No.4, Op.40 in G minor - II. Largo
TTITLE5=Piano Concerto No.4, Op.40 in G minor - III. Allegro vivace
TTITLE6=Rhapsody on a Theme of Paganini, Op.43
EXTD=YEAR: 1965
EXTT0=
EXTT1=
EXTT2=
EXTT3=
EXTT4=
EXTT5=
EXTT6=
PLAYORDER=
